# xmcd CD database file
#
# Track frame offsets:
#	150
#	24351
#	54254
#	84871
#	108038
#	127949
#	147194
#	172438
#	198453
#	229454
#
# Disc length: 3370 seconds
#
# Revision: 0
# Processed by: cddbd v1.5.2PL0 Copyright (c) Steve Scherf et al.
# Submitted via: CDex 1.51
#
DISCID=7e0d280a
DTITLE=Larry Carlton - The Gift
DYEAR=1900
DGENRE=Jazz
TTITLE0=Ridin' The Treasure
TTITLE1=Things We Said Today
TTITLE2=Goin' Nowhere
TTITLE3=The Gift
TTITLE4=Shop 'Till You Drop
TTITLE5=Pammie Dear
TTITLE6=Osaka Cool
TTITLE7=My Old Town
TTITLE8=Mourning Dove
TTITLE9=Buddy
EXTD=
EXTT0=
EXTT1=
EXTT2=
EXTT3=
EXTT4=
EXTT5=
EXTT6=
EXTT7=
EXTT8=
EXTT9=
PLAYORDER=
